<?xml version="1.0" encoding="UTF-8" standalone="no"?>
<!DOCTYPE svg PUBLIC "-//W3C//DTD SVG 1.1//EN" "http://www.w3.org/Graphics/SVG/1.1/DTD/svg11.dtd">
<svg width="100%" height="100%" viewBox="0 0 2075 759" version="1.1" xmlns="http://www.w3.org/2000/svg" xmlns:xlink="http://www.w3.org/1999/xlink" xml:space="preserve" xmlns:serif="http://www.serif.com/" style="fill-rule:evenodd;clip-rule:evenodd;stroke-linejoin:round;stroke-miterlimit:2;">
    <g transform="matrix(4.16667,0,0,4.16667,0,0)">
        <g transform="matrix(0.463331,0,0,0.463331,-334.886,-612.96)">
            <g transform="matrix(0.316983,0,0,0.316983,618.758,966.047)">
                <g transform="matrix(4.16667,0,0,-4.59995,1849.34,1247.7)">
                    <path d="M0,-17.808C-10.878,-25.359 -21.829,-32.808 -32.79,-40.241C-37.666,-43.547 -41.348,-43.428 -46.398,-40.069C-52.738,-35.852 -59.065,-31.616 -65.427,-27.433C-71.595,-23.379 -72.917,-23.587 -78.182,-28.325C-79.663,-29.658 -81.653,-31.153 -83.502,-31.231C-89.92,-31.501 -96.368,-31.275 -102.73,-31.194L-102.73,14.287C-98.351,14.137 -93.949,13.887 -89.575,14.064C-84.889,14.253 -81,13.355 -77.657,9.597C-74.685,6.256 -71.189,6.365 -67.576,8.934C-60.866,13.704 -53.985,18.238 -47.197,22.901C-43.312,25.57 -39.237,25.739 -35.254,23.126C-23.496,15.409 -11.752,7.667 -0.156,-0.294C6.738,-5.026 6.733,-13.134 0,-17.808" style="fill:white;fill-rule:nonzero;"/>
                </g>
                <g transform="matrix(4.16667,0,0,-4.59995,1198.46,1572.35)">
                    <path d="M0,-44.655C-1.848,-44.577 -3.838,-43.082 -5.32,-41.749C-10.585,-37.011 -11.906,-36.803 -18.074,-40.857C-24.436,-45.04 -30.764,-49.276 -37.104,-53.493C-42.154,-56.852 -45.836,-56.971 -50.711,-53.665C-61.673,-46.232 -72.623,-38.783 -83.502,-31.232C-90.235,-26.558 -90.24,-18.45 -83.346,-13.717C-71.75,-5.757 -60.005,1.985 -48.248,9.702C-44.265,12.316 -40.19,12.146 -36.305,9.478C-29.517,4.814 -22.635,0.28 -15.925,-4.49C-12.312,-7.059 -8.816,-7.167 -5.845,-3.827C-2.961,-0.585 0.332,0.526 4.189,0.649C4.189,0.757 4.195,0.865 4.194,0.972L17.48,0.972L17.48,-44.644C11.686,-44.738 5.831,-44.901 0,-44.655" style="fill:white;fill-rule:nonzero;"/>
                </g>
                <g transform="matrix(4.16667,0,0,-4.59995,1898.02,1424.16)">
                    <path d="M0,-150.355C-4.557,-160.769 -10.638,-169.881 -18.225,-177.692C-25.822,-185.503 -34.822,-191.686 -45.236,-196.243C-55.651,-200.799 -66.716,-203.077 -78.432,-203.077L-247.012,-203.077C-264.81,-203.077 -281.509,-199.71 -297.13,-192.988C-312.752,-186.255 -326.319,-177.143 -337.811,-165.651C-349.313,-154.148 -358.426,-140.592 -365.148,-124.97C-371.881,-109.349 -375.237,-92.64 -375.237,-74.852C-375.237,-57.492 -371.881,-41.006 -365.148,-25.384C-358.426,-9.763 -349.313,3.804 -337.811,15.296C-326.319,26.798 -312.752,35.912 -297.13,42.633C-281.509,49.367 -264.81,52.722 -247.012,52.722L-120.416,52.722L-120.416,7.811L-247.012,7.811C-258.301,7.811 -268.929,5.644 -278.906,1.302C-288.893,-3.03 -297.68,-9.001 -305.267,-16.597C-312.864,-24.184 -318.833,-32.971 -323.166,-42.959C-327.509,-52.935 -329.675,-63.563 -329.675,-74.852C-329.675,-86.568 -327.509,-97.409 -323.166,-107.397C-318.833,-117.373 -312.864,-126.048 -305.267,-133.432C-297.68,-140.805 -288.893,-146.663 -278.906,-151.006C-268.929,-155.338 -258.301,-157.515 -247.012,-157.515L-78.432,-157.515C-67.153,-157.515 -57.604,-153.609 -49.793,-145.799C-41.982,-137.988 -38.077,-128.438 -38.077,-117.16C-38.077,-105.871 -41.982,-96.331 -49.793,-88.521C-57.604,-80.71 -67.153,-76.805 -78.432,-76.805L-144.416,-76.805L-144.416,-31.243L-78.432,-31.243C-66.716,-31.243 -55.651,-33.52 -45.236,-38.077C-34.822,-42.633 -25.822,-48.817 -18.225,-56.627C-10.638,-64.438 -4.557,-73.55 0,-83.964C4.557,-94.378 6.834,-105.444 6.834,-117.16C6.834,-128.876 4.557,-139.941 0,-150.355" style="fill:rgb(218,255,0);fill-rule:nonzero;"/>
                </g>
            </g>
            <g transform="matrix(1,0,0,1,-380.266,-947.647)">
                <g transform="matrix(1,0,0,1,86.1031,20.3323)">
                    <path d="M1568.45,2347.05C1558.06,2347.05 1549.18,2343.64 1541.82,2336.84C1534.46,2330.04 1530.79,2322.27 1530.79,2313.54C1530.79,2304.53 1534.46,2296.78 1541.82,2290.29C1549.18,2283.79 1558.06,2280.55 1568.45,2280.55C1578.84,2280.55 1587.62,2283.79 1594.8,2290.29C1601.98,2296.78 1605.57,2304.53 1605.57,2313.54C1605.57,2322.27 1601.98,2330.04 1594.8,2336.84C1587.62,2343.64 1578.84,2347.05 1568.45,2347.05Z" style="fill:white;fill-rule:nonzero;"/>
                </g>
                <path d="M1658.4,2654.49C1648.75,2654.49 1640.76,2652.21 1634.44,2647.64C1628.11,2643.08 1624.95,2638.04 1624.95,2632.53L1624.95,2424.5C1624.95,2418.09 1628.11,2412.91 1634.44,2408.97C1640.76,2405.03 1648.75,2403.07 1658.4,2403.07C1667.03,2403.07 1674.3,2405.03 1680.21,2408.97C1686.12,2412.91 1689.07,2418.09 1689.07,2424.5L1689.07,2445.91C1692.75,2438.3 1697.87,2431.02 1704.43,2424.05C1711,2417.09 1718.56,2411.32 1727.12,2406.75C1735.68,2402.18 1744.75,2399.89 1754.33,2399.89L1783.09,2401.26C1789.71,2401.26 1804.37,2404.05 1809.31,2409.95C1814.25,2415.86 1795.34,2421.65 1795.34,2429.73C1795.34,2438 1792.87,2445.1 1787.93,2451C1782.99,2456.91 1787.54,2456.1 1780.92,2456.1L1754.33,2459.87C1744.2,2459.87 1734.45,2463.09 1725.1,2469.54C1715.74,2475.99 1708.09,2485 1702.14,2496.56C1696.19,2508.13 1693.21,2522.02 1693.21,2538.25L1693.21,2632.53C1693.21,2638.04 1689.85,2643.08 1683.11,2647.64C1676.37,2652.21 1668.13,2654.49 1658.4,2654.49Z" style="fill:white;fill-rule:nonzero;"/>
                <path d="M1826.61,2659.33C1807.8,2659.33 1791.61,2653.6 1778.01,2642.13C1764.41,2630.67 1757.62,2612.98 1757.62,2589.06C1757.62,2568.71 1762.89,2552.88 1773.43,2541.58C1783.98,2530.28 1798.51,2522.42 1817.03,2517.99C1835.55,2513.55 1856.98,2511.34 1881.33,2511.34L1902.66,2511.34L1902.66,2503.98C1902.66,2496.38 1901.2,2488.85 1898.28,2481.4C1895.35,2473.95 1890.57,2467.74 1883.92,2462.76C1877.29,2457.79 1868.13,2455.3 1856.45,2455.3C1842.74,2455.3 1831.85,2455.8 1824.24,2456.42C1818.71,2456.87 1771.05,2457.66 1756.51,2457.64C1748.48,2457.63 1769.85,2456.11 1768.43,2457.13C1764.43,2460.01 1772.68,2454.67 1768.35,2454.67C1762.47,2454.67 1762.09,2457.79 1763.3,2456.48C1763.63,2456.12 1770.61,2457.4 1769.72,2455.77C1765.61,2448.29 1772.41,2445.71 1772.41,2437.87C1772.41,2430.48 1781.5,2425.16 1785.04,2415.1C1789.44,2402.61 1762.31,2400.93 1821.14,2401.47C1834.63,2401.6 1844.99,2399.89 1857.5,2399.89C1884.9,2399.89 1906.88,2404.81 1923.45,2414.65C1940.02,2424.49 1952.08,2437.23 1959.62,2452.85C1967.16,2468.47 1970.93,2485.24 1970.93,2503.15L1976.63,2613.79C1976.63,2619.86 1967.79,2643.77 1961.5,2648.06C1955.22,2652.35 1947.21,2654.49 1937.48,2654.49C1928.92,2654.49 1921.68,2652.35 1915.73,2648.06C1909.79,2643.77 1906.82,2638.6 1906.82,2632.53L1906.82,2617.45C1897.44,2628.23 1886.35,2637.91 1873.53,2646.48C1860.72,2655.05 1845.08,2659.33 1826.61,2659.33ZM1854.26,2608.47C1861.59,2608.47 1868.92,2606.04 1876.26,2601.17C1883.59,2596.3 1889.83,2589.97 1894.96,2582.18C1900.1,2574.39 1902.66,2566.24 1902.66,2557.73L1902.66,2546.44L1894.7,2546.44C1883.07,2546.44 1871.99,2547.15 1861.46,2548.58C1850.93,2550.01 1842.44,2553.09 1835.98,2557.83C1829.52,2562.58 1826.29,2569.95 1826.29,2579.94C1826.29,2589.84 1828.96,2597.08 1834.29,2601.63C1839.62,2606.19 1846.28,2608.47 1854.26,2608.47Z" style="fill:white;fill-rule:nonzero;"/>
                <path d="M2078.54,2659.33C2076.65,2659.33 1938.22,2654.02 1934.07,2653.01C1898.14,2644.23 1923.01,2637.95 1910.04,2633.95C1895.54,2629.48 1972.26,2628.91 1963.84,2621.96C1955.42,2615.01 1938.55,2586.08 1957.72,2605.93C1960.29,2608.6 1949.09,2598 1951.03,2593.31C1952.98,2588.63 1968.22,2585.76 1963.5,2584.4C1930.07,2574.75 1960.67,2568.43 1965.05,2568.43C1970.16,2568.43 1962.91,2564.06 1968.29,2568.12C1973.66,2572.17 1975.16,2600.7 1979.37,2608.75C1994.02,2636.71 2073.57,2621.78 2088.51,2617.74C2106.65,2612.83 2107.57,2607.88 2111.41,2602.16C2115.41,2596.2 2115.88,2589.81 2115.88,2584.45C2115.88,2576.77 2112.84,2570.79 2106.77,2566.53C2100.69,2562.26 2092.89,2558.79 2083.35,2556.11C2073.81,2553.44 2063.67,2550.58 2052.93,2547.54C2042.19,2544.51 2032.06,2540.44 2022.52,2535.34C2012.98,2530.23 2005.17,2523.19 1999.1,2514.21C1993.02,2505.24 1989.99,2493.38 1989.99,2478.64C1989.99,2466.12 1993,2453.81 1999.02,2441.7C2005.04,2429.6 2014.96,2419.6 2028.77,2411.72C2042.59,2403.83 2061.29,2399.89 2084.89,2399.89C2099.34,2399.89 2112.95,2401.38 2125.73,2404.37C2138.51,2407.35 2148.97,2411.49 2157.12,2416.77C2165.27,2422.06 2169.34,2427.99 2169.34,2434.55C2169.34,2437.54 2168.35,2441.65 2166.36,2446.87C2164.37,2452.09 2161.52,2456.77 2157.8,2460.9C2154.08,2465.03 2149.54,2467.1 2144.18,2467.1C2140.13,2467.1 2135.39,2465.8 2129.98,2463.19C2124.56,2460.58 2118.29,2458 2111.16,2455.43C2104.02,2452.86 2095.58,2451.57 2085.83,2451.57C2077.1,2451.57 2070.04,2452.86 2064.68,2455.42C2059.31,2457.99 2055.38,2461.06 2052.88,2464.64C2050.38,2468.22 2049.13,2471.88 2049.13,2475.62C2049.13,2482.01 2052.17,2486.93 2058.24,2490.38C2064.32,2493.83 2072.19,2496.83 2081.87,2499.39C2091.54,2501.95 2101.75,2504.75 2112.49,2507.79C2123.23,2510.82 2133.43,2515.17 2143.11,2520.84C2152.79,2526.51 2160.66,2534.16 2166.74,2543.78C2172.81,2553.41 2175.85,2566.06 2175.85,2581.73C2175.85,2605.28 2167.48,2624.1 2150.74,2638.19C2134.63,2651.76 2111.72,2658.8 2082,2659.3C2080.86,2659.32 2079.7,2659.33 2078.54,2659.33Z" style="fill:white;fill-rule:nonzero;"/>
            </g>
        </g>
    </g>
</svg>
