<?xml version="1.0" encoding="UTF-8" standalone="no"?>
<!DOCTYPE svg PUBLIC "-//W3C//DTD SVG 1.1//EN" "http://www.w3.org/Graphics/SVG/1.1/DTD/svg11.dtd">
<svg width="100%" height="100%" viewBox="0 0 236 182" version="1.1" xmlns="http://www.w3.org/2000/svg" xmlns:xlink="http://www.w3.org/1999/xlink" xml:space="preserve" xmlns:serif="http://www.serif.com/" style="fill-rule:evenodd;clip-rule:evenodd;stroke-linejoin:round;stroke-miterlimit:2;">
    <g transform="matrix(0.146868,0,0,0.146868,-48.0372,-165.36)">
        <g transform="matrix(4.16667,0,0,-4.59995,1849.34,1247.7)">
            <path d="M0,-17.808C-10.878,-25.359 -21.829,-32.808 -32.79,-40.241C-37.666,-43.547 -41.348,-43.428 -46.398,-40.069C-52.738,-35.852 -59.065,-31.616 -65.427,-27.433C-71.595,-23.379 -72.917,-23.587 -78.182,-28.325C-79.663,-29.658 -81.653,-31.153 -83.502,-31.231C-89.92,-31.501 -96.368,-31.275 -102.73,-31.194L-102.73,14.287C-98.351,14.137 -93.949,13.887 -89.575,14.064C-84.889,14.253 -81,13.355 -77.657,9.597C-74.685,6.256 -71.189,6.365 -67.576,8.934C-60.866,13.704 -53.985,18.238 -47.197,22.901C-43.312,25.57 -39.237,25.739 -35.254,23.126C-23.496,15.409 -11.752,7.667 -0.156,-0.294C6.738,-5.026 6.733,-13.134 0,-17.808" style="fill:white;fill-rule:nonzero;"/>
        </g>
        <g transform="matrix(4.16667,0,0,-4.59995,1198.46,1572.35)">
            <path d="M0,-44.655C-1.848,-44.577 -3.838,-43.082 -5.32,-41.749C-10.585,-37.011 -11.906,-36.803 -18.074,-40.857C-24.436,-45.04 -30.764,-49.276 -37.104,-53.493C-42.154,-56.852 -45.836,-56.971 -50.711,-53.665C-61.673,-46.232 -72.623,-38.783 -83.502,-31.232C-90.235,-26.558 -90.24,-18.45 -83.346,-13.717C-71.75,-5.757 -60.005,1.985 -48.248,9.702C-44.265,12.316 -40.19,12.146 -36.305,9.478C-29.517,4.814 -22.635,0.28 -15.925,-4.49C-12.312,-7.059 -8.816,-7.167 -5.845,-3.827C-2.961,-0.585 0.332,0.526 4.189,0.649C4.189,0.757 4.195,0.865 4.194,0.972L17.48,0.972L17.48,-44.644C11.686,-44.738 5.831,-44.901 0,-44.655" style="fill:white;fill-rule:nonzero;"/>
        </g>
        <g transform="matrix(4.16667,0,0,-4.59995,1898.02,1424.16)">
            <path d="M0,-150.355C-4.557,-160.769 -10.638,-169.881 -18.225,-177.692C-25.822,-185.503 -34.822,-191.686 -45.236,-196.243C-55.651,-200.799 -66.716,-203.077 -78.432,-203.077L-247.012,-203.077C-264.81,-203.077 -281.509,-199.71 -297.13,-192.988C-312.752,-186.255 -326.319,-177.143 -337.811,-165.651C-349.313,-154.148 -358.426,-140.592 -365.148,-124.97C-371.881,-109.349 -375.237,-92.64 -375.237,-74.852C-375.237,-57.492 -371.881,-41.006 -365.148,-25.384C-358.426,-9.763 -349.313,3.804 -337.811,15.296C-326.319,26.798 -312.752,35.912 -297.13,42.633C-281.509,49.367 -264.81,52.722 -247.012,52.722L-120.416,52.722L-120.416,7.811L-247.012,7.811C-258.301,7.811 -268.929,5.644 -278.906,1.302C-288.893,-3.03 -297.68,-9.001 -305.267,-16.597C-312.864,-24.184 -318.833,-32.971 -323.166,-42.959C-327.509,-52.935 -329.675,-63.563 -329.675,-74.852C-329.675,-86.568 -327.509,-97.409 -323.166,-107.397C-318.833,-117.373 -312.864,-126.048 -305.267,-133.432C-297.68,-140.805 -288.893,-146.663 -278.906,-151.006C-268.929,-155.338 -258.301,-157.515 -247.012,-157.515L-78.432,-157.515C-67.153,-157.515 -57.604,-153.609 -49.793,-145.799C-41.982,-137.988 -38.077,-128.438 -38.077,-117.16C-38.077,-105.871 -41.982,-96.331 -49.793,-88.521C-57.604,-80.71 -67.153,-76.805 -78.432,-76.805L-144.416,-76.805L-144.416,-31.243L-78.432,-31.243C-66.716,-31.243 -55.651,-33.52 -45.236,-38.077C-34.822,-42.633 -25.822,-48.817 -18.225,-56.627C-10.638,-64.438 -4.557,-73.55 0,-83.964C4.557,-94.378 6.834,-105.444 6.834,-117.16C6.834,-128.876 4.557,-139.941 0,-150.355" style="fill:rgb(218,255,0);fill-rule:nonzero;"/>
        </g>
    </g>
</svg>
